<mxfile host="app.diagrams.net" agent="Mozilla/5.0 (Windows NT 10.0; Win64; x64) AppleWebKit/537.36 (KHTML, like Gecko) Chrome/140.0.0.0 Safari/537.36" version="28.2.1" pages="3">
  <diagram name="Casos_De_Uso" id="0Wb1LLlp7r290baFD5k5">
    <mxGraphModel dx="872" dy="473" grid="1" gridSize="10" guides="1" tooltips="1" connect="1" arrows="1" fold="1" page="1" pageScale="1" pageWidth="827" pageHeight="1169" math="0" shadow="0">
      <root>
        <mxCell id="0" />
        <mxCell id="1" parent="0" />
        <mxCell id="L4y1q8X-tsEWpmJVP0X6-1" value="UsuárioConsumidor" style="shape=umlActor;verticalLabelPosition=bottom;verticalAlign=top;html=1;outlineConnect=0;" parent="1" vertex="1">
          <mxGeometry x="70" y="130" width="40" height="90" as="geometry" />
        </mxCell>
        <mxCell id="L4y1q8X-tsEWpmJVP0X6-3" value="Assistir_Streams" style="ellipse;whiteSpace=wrap;html=1;" parent="1" vertex="1">
          <mxGeometry x="320" y="110" width="155" height="50" as="geometry" />
        </mxCell>
        <mxCell id="L4y1q8X-tsEWpmJVP0X6-4" value="" style="endArrow=classic;html=1;rounded=0;entryX=0;entryY=0.5;entryDx=0;entryDy=0;" parent="1" source="L4y1q8X-tsEWpmJVP0X6-1" target="L4y1q8X-tsEWpmJVP0X6-3" edge="1">
          <mxGeometry width="50" height="50" relative="1" as="geometry">
            <mxPoint x="120" y="160" as="sourcePoint" />
            <mxPoint x="309.9999999999998" y="165" as="targetPoint" />
          </mxGeometry>
        </mxCell>
        <mxCell id="L4y1q8X-tsEWpmJVP0X6-10" value="Calendario_Publico" style="ellipse;whiteSpace=wrap;html=1;" parent="1" vertex="1">
          <mxGeometry x="290" y="690" width="157" height="50" as="geometry" />
        </mxCell>
        <mxCell id="L4y1q8X-tsEWpmJVP0X6-11" value="" style="endArrow=classic;html=1;rounded=0;entryX=0;entryY=0.5;entryDx=0;entryDy=0;" parent="1" source="L4y1q8X-tsEWpmJVP0X6-16" target="L4y1q8X-tsEWpmJVP0X6-10" edge="1">
          <mxGeometry width="50" height="50" relative="1" as="geometry">
            <mxPoint x="320" y="620" as="sourcePoint" />
            <mxPoint x="370" y="570" as="targetPoint" />
          </mxGeometry>
        </mxCell>
        <mxCell id="L4y1q8X-tsEWpmJVP0X6-12" value="Pesquisar_Streamers" style="ellipse;whiteSpace=wrap;html=1;" parent="1" vertex="1">
          <mxGeometry x="305" y="200" width="170" height="50" as="geometry" />
        </mxCell>
        <mxCell id="L4y1q8X-tsEWpmJVP0X6-13" value="" style="endArrow=classic;html=1;rounded=0;entryX=0;entryY=0.5;entryDx=0;entryDy=0;" parent="1" source="L4y1q8X-tsEWpmJVP0X6-1" target="L4y1q8X-tsEWpmJVP0X6-12" edge="1">
          <mxGeometry width="50" height="50" relative="1" as="geometry">
            <mxPoint x="330" y="240" as="sourcePoint" />
            <mxPoint x="229" y="265" as="targetPoint" />
          </mxGeometry>
        </mxCell>
        <mxCell id="L4y1q8X-tsEWpmJVP0X6-14" value="Acordos / Negócios" style="ellipse;whiteSpace=wrap;html=1;" parent="1" vertex="1">
          <mxGeometry x="130" y="640" width="150" height="50" as="geometry" />
        </mxCell>
        <mxCell id="L4y1q8X-tsEWpmJVP0X6-15" value="" style="endArrow=classic;html=1;rounded=0;entryX=0.007;entryY=0.7;entryDx=0;entryDy=0;entryPerimeter=0;" parent="1" source="L4y1q8X-tsEWpmJVP0X6-16" target="L4y1q8X-tsEWpmJVP0X6-14" edge="1">
          <mxGeometry width="50" height="50" relative="1" as="geometry">
            <mxPoint x="110" y="590" as="sourcePoint" />
            <mxPoint x="370" y="570" as="targetPoint" />
          </mxGeometry>
        </mxCell>
        <mxCell id="L4y1q8X-tsEWpmJVP0X6-16" value="CriadorConteudo" style="shape=umlActor;verticalLabelPosition=bottom;verticalAlign=top;html=1;outlineConnect=0;" parent="1" vertex="1">
          <mxGeometry x="60" y="840" width="50" height="80" as="geometry" />
        </mxCell>
        <mxCell id="L4y1q8X-tsEWpmJVP0X6-17" value="Fazer_Streams" style="ellipse;whiteSpace=wrap;html=1;" parent="1" vertex="1">
          <mxGeometry x="430" y="750" width="140" height="50" as="geometry" />
        </mxCell>
        <mxCell id="L4y1q8X-tsEWpmJVP0X6-18" value="" style="endArrow=classic;html=1;rounded=0;entryX=0;entryY=0.5;entryDx=0;entryDy=0;" parent="1" target="L4y1q8X-tsEWpmJVP0X6-17" edge="1">
          <mxGeometry width="50" height="50" relative="1" as="geometry">
            <mxPoint x="100" y="885" as="sourcePoint" />
            <mxPoint x="370" y="910" as="targetPoint" />
          </mxGeometry>
        </mxCell>
        <mxCell id="L4y1q8X-tsEWpmJVP0X6-19" value="Postar_Videos" style="ellipse;whiteSpace=wrap;html=1;" parent="1" vertex="1">
          <mxGeometry x="420" y="1000" width="160" height="50" as="geometry" />
        </mxCell>
        <mxCell id="L4y1q8X-tsEWpmJVP0X6-20" value="" style="endArrow=classic;html=1;rounded=0;entryX=0;entryY=0.5;entryDx=0;entryDy=0;" parent="1" target="L4y1q8X-tsEWpmJVP0X6-19" edge="1">
          <mxGeometry width="50" height="50" relative="1" as="geometry">
            <mxPoint x="100" y="894" as="sourcePoint" />
            <mxPoint x="370" y="910" as="targetPoint" />
          </mxGeometry>
        </mxCell>
        <mxCell id="L4y1q8X-tsEWpmJVP0X6-25" value="Assinar_Plano_Sem_Anuncios" style="ellipse;whiteSpace=wrap;html=1;" parent="1" vertex="1">
          <mxGeometry x="170" y="30" width="240" height="50" as="geometry" />
        </mxCell>
        <mxCell id="L4y1q8X-tsEWpmJVP0X6-26" value="" style="endArrow=classic;html=1;rounded=0;entryX=0;entryY=1;entryDx=0;entryDy=0;" parent="1" source="L4y1q8X-tsEWpmJVP0X6-1" target="L4y1q8X-tsEWpmJVP0X6-25" edge="1">
          <mxGeometry width="50" height="50" relative="1" as="geometry">
            <mxPoint x="330" y="140" as="sourcePoint" />
            <mxPoint x="380" y="90" as="targetPoint" />
          </mxGeometry>
        </mxCell>
        <mxCell id="L4y1q8X-tsEWpmJVP0X6-27" value="Patrocinadores" style="shape=umlActor;verticalLabelPosition=bottom;verticalAlign=top;html=1;outlineConnect=0;" parent="1" vertex="1">
          <mxGeometry x="60" y="440" width="50" height="90" as="geometry" />
        </mxCell>
        <mxCell id="L4y1q8X-tsEWpmJVP0X6-32" value="ExcluiVideo" style="ellipse;whiteSpace=wrap;html=1;" parent="1" vertex="1">
          <mxGeometry x="280" y="1070" width="120" height="50" as="geometry" />
        </mxCell>
        <mxCell id="L4y1q8X-tsEWpmJVP0X6-33" value="" style="endArrow=classic;html=1;rounded=0;entryX=0.333;entryY=0;entryDx=0;entryDy=0;entryPerimeter=0;" parent="1" target="L4y1q8X-tsEWpmJVP0X6-32" edge="1">
          <mxGeometry width="50" height="50" relative="1" as="geometry">
            <mxPoint x="120" y="920" as="sourcePoint" />
            <mxPoint x="250" y="960" as="targetPoint" />
          </mxGeometry>
        </mxCell>
        <mxCell id="7ROJ7HDXmXH9lJl7lErS-1" value="Inserir Anuncios" style="ellipse;whiteSpace=wrap;html=1;" parent="1" vertex="1">
          <mxGeometry x="260" y="400" width="120" height="50" as="geometry" />
        </mxCell>
        <mxCell id="7ROJ7HDXmXH9lJl7lErS-2" value="" style="endArrow=classic;html=1;rounded=0;entryX=0;entryY=0.5;entryDx=0;entryDy=0;" parent="1" source="L4y1q8X-tsEWpmJVP0X6-27" target="7ROJ7HDXmXH9lJl7lErS-1" edge="1">
          <mxGeometry width="50" height="50" relative="1" as="geometry">
            <mxPoint x="160" y="480" as="sourcePoint" />
            <mxPoint x="210" y="430" as="targetPoint" />
          </mxGeometry>
        </mxCell>
        <mxCell id="7ROJ7HDXmXH9lJl7lErS-3" value="Cria Canal" style="ellipse;whiteSpace=wrap;html=1;" parent="1" vertex="1">
          <mxGeometry x="475" y="830" width="140" height="50" as="geometry" />
        </mxCell>
        <mxCell id="7ROJ7HDXmXH9lJl7lErS-6" value="" style="endArrow=classic;html=1;rounded=0;entryX=0;entryY=0.5;entryDx=0;entryDy=0;" parent="1" source="L4y1q8X-tsEWpmJVP0X6-16" target="7ROJ7HDXmXH9lJl7lErS-3" edge="1">
          <mxGeometry width="50" height="50" relative="1" as="geometry">
            <mxPoint x="110" y="900" as="sourcePoint" />
            <mxPoint x="360" y="910" as="targetPoint" />
          </mxGeometry>
        </mxCell>
        <mxCell id="7ROJ7HDXmXH9lJl7lErS-9" value="Edita Canal" style="ellipse;whiteSpace=wrap;html=1;" parent="1" vertex="1">
          <mxGeometry x="490" y="920" width="141" height="50" as="geometry" />
        </mxCell>
        <mxCell id="7ROJ7HDXmXH9lJl7lErS-10" value="" style="endArrow=classic;html=1;rounded=0;entryX=0.021;entryY=0.28;entryDx=0;entryDy=0;entryPerimeter=0;" parent="1" source="L4y1q8X-tsEWpmJVP0X6-16" target="7ROJ7HDXmXH9lJl7lErS-9" edge="1">
          <mxGeometry width="50" height="50" relative="1" as="geometry">
            <mxPoint x="310" y="960" as="sourcePoint" />
            <mxPoint x="360" y="910" as="targetPoint" />
          </mxGeometry>
        </mxCell>
        <mxCell id="7ROJ7HDXmXH9lJl7lErS-11" value="CriarBotsStream" style="ellipse;whiteSpace=wrap;html=1;" parent="1" vertex="1">
          <mxGeometry x="110" y="1070" width="120" height="50" as="geometry" />
        </mxCell>
        <mxCell id="7ROJ7HDXmXH9lJl7lErS-12" value="" style="endArrow=classic;html=1;rounded=0;entryX=0.5;entryY=0;entryDx=0;entryDy=0;" parent="1" source="L4y1q8X-tsEWpmJVP0X6-16" target="7ROJ7HDXmXH9lJl7lErS-11" edge="1">
          <mxGeometry width="50" height="50" relative="1" as="geometry">
            <mxPoint x="320" y="980" as="sourcePoint" />
            <mxPoint x="370" y="930" as="targetPoint" />
          </mxGeometry>
        </mxCell>
        <mxCell id="7ROJ7HDXmXH9lJl7lErS-14" value="Criar Eventos" style="ellipse;whiteSpace=wrap;html=1;" parent="1" vertex="1">
          <mxGeometry x="260" y="540" width="120" height="50" as="geometry" />
        </mxCell>
        <mxCell id="7ROJ7HDXmXH9lJl7lErS-16" value="" style="endArrow=classic;html=1;rounded=0;entryX=0;entryY=0.5;entryDx=0;entryDy=0;" parent="1" source="L4y1q8X-tsEWpmJVP0X6-27" target="7ROJ7HDXmXH9lJl7lErS-14" edge="1">
          <mxGeometry width="50" height="50" relative="1" as="geometry">
            <mxPoint x="200" y="520" as="sourcePoint" />
            <mxPoint x="250" y="470" as="targetPoint" />
          </mxGeometry>
        </mxCell>
        <mxCell id="ZrL4zfCOlltBhY1VTEnL-3" value="Criar_Conta" style="ellipse;whiteSpace=wrap;html=1;" parent="1" vertex="1">
          <mxGeometry x="220" y="280" width="140" height="50" as="geometry" />
        </mxCell>
        <mxCell id="ZrL4zfCOlltBhY1VTEnL-4" value="" style="endArrow=classic;html=1;rounded=0;entryX=0;entryY=0.5;entryDx=0;entryDy=0;" parent="1" source="L4y1q8X-tsEWpmJVP0X6-1" target="ZrL4zfCOlltBhY1VTEnL-3" edge="1">
          <mxGeometry width="50" height="50" relative="1" as="geometry">
            <mxPoint x="240" y="290" as="sourcePoint" />
            <mxPoint x="290" y="240" as="targetPoint" />
          </mxGeometry>
        </mxCell>
      </root>
    </mxGraphModel>
  </diagram>
  <diagram id="MfHt3qGVcwqovySneROy" name="FluxoDeAtividadeCriarConta">
    <mxGraphModel dx="1379" dy="762" grid="1" gridSize="10" guides="1" tooltips="1" connect="1" arrows="1" fold="1" page="1" pageScale="1" pageWidth="827" pageHeight="1169" math="0" shadow="0">
      <root>
        <mxCell id="0" />
        <mxCell id="1" parent="0" />
        <mxCell id="eqwybZmGa9eHu6jBJoFd-1" value="" style="ellipse;whiteSpace=wrap;html=1;aspect=fixed;" vertex="1" parent="1">
          <mxGeometry x="389" y="40" width="50" height="50" as="geometry" />
        </mxCell>
        <mxCell id="eqwybZmGa9eHu6jBJoFd-2" value="Insira o Nome" style="rounded=1;whiteSpace=wrap;html=1;" vertex="1" parent="1">
          <mxGeometry x="170" y="200" width="120" height="60" as="geometry" />
        </mxCell>
        <mxCell id="eqwybZmGa9eHu6jBJoFd-3" value="Insira o Email" style="rounded=1;whiteSpace=wrap;html=1;" vertex="1" parent="1">
          <mxGeometry x="170" y="310" width="120" height="60" as="geometry" />
        </mxCell>
        <mxCell id="eqwybZmGa9eHu6jBJoFd-4" value="Inisra a Senha" style="rounded=1;whiteSpace=wrap;html=1;" vertex="1" parent="1">
          <mxGeometry x="170" y="410" width="120" height="60" as="geometry" />
        </mxCell>
        <mxCell id="eqwybZmGa9eHu6jBJoFd-5" value="Confirmar Senha" style="rounded=1;whiteSpace=wrap;html=1;" vertex="1" parent="1">
          <mxGeometry x="170" y="510" width="120" height="60" as="geometry" />
        </mxCell>
        <mxCell id="eqwybZmGa9eHu6jBJoFd-6" value="Cadastrar com Google" style="rounded=1;whiteSpace=wrap;html=1;" vertex="1" parent="1">
          <mxGeometry x="522" y="340" width="120" height="60" as="geometry" />
        </mxCell>
        <mxCell id="eqwybZmGa9eHu6jBJoFd-7" value="" style="line;strokeWidth=1;fillColor=none;align=left;verticalAlign=middle;spacingTop=-1;spacingLeft=3;spacingRight=3;rotatable=0;labelPosition=right;points=[];portConstraint=eastwest;strokeColor=inherit;" vertex="1" parent="1">
          <mxGeometry x="170" y="150" width="480" height="8" as="geometry" />
        </mxCell>
        <mxCell id="eqwybZmGa9eHu6jBJoFd-8" value="" style="endArrow=classic;html=1;rounded=0;entryX=0.5;entryY=0;entryDx=0;entryDy=0;" edge="1" parent="1" target="eqwybZmGa9eHu6jBJoFd-2">
          <mxGeometry width="50" height="50" relative="1" as="geometry">
            <mxPoint x="230" y="150" as="sourcePoint" />
            <mxPoint x="440" y="370" as="targetPoint" />
          </mxGeometry>
        </mxCell>
        <mxCell id="eqwybZmGa9eHu6jBJoFd-9" value="" style="endArrow=classic;html=1;rounded=0;entryX=0.5;entryY=0;entryDx=0;entryDy=0;exitX=0.858;exitY=0.25;exitDx=0;exitDy=0;exitPerimeter=0;" edge="1" parent="1" source="eqwybZmGa9eHu6jBJoFd-7" target="eqwybZmGa9eHu6jBJoFd-6">
          <mxGeometry width="50" height="50" relative="1" as="geometry">
            <mxPoint x="580" y="160" as="sourcePoint" />
            <mxPoint x="440" y="370" as="targetPoint" />
          </mxGeometry>
        </mxCell>
        <mxCell id="eqwybZmGa9eHu6jBJoFd-10" value="" style="endArrow=classic;html=1;rounded=0;exitX=0.5;exitY=1;exitDx=0;exitDy=0;entryX=0.135;entryY=0.375;entryDx=0;entryDy=0;entryPerimeter=0;" edge="1" parent="1" source="eqwybZmGa9eHu6jBJoFd-1" target="eqwybZmGa9eHu6jBJoFd-7">
          <mxGeometry width="50" height="50" relative="1" as="geometry">
            <mxPoint x="390" y="420" as="sourcePoint" />
            <mxPoint x="440" y="370" as="targetPoint" />
          </mxGeometry>
        </mxCell>
        <mxCell id="eqwybZmGa9eHu6jBJoFd-11" value="" style="endArrow=classic;html=1;rounded=0;exitX=0.5;exitY=1;exitDx=0;exitDy=0;entryX=0.863;entryY=0.5;entryDx=0;entryDy=0;entryPerimeter=0;" edge="1" parent="1" source="eqwybZmGa9eHu6jBJoFd-1" target="eqwybZmGa9eHu6jBJoFd-7">
          <mxGeometry width="50" height="50" relative="1" as="geometry">
            <mxPoint x="390" y="420" as="sourcePoint" />
            <mxPoint x="440" y="370" as="targetPoint" />
          </mxGeometry>
        </mxCell>
        <mxCell id="eqwybZmGa9eHu6jBJoFd-12" value="" style="shape=line;html=1;strokeWidth=6;strokeColor=#ff0000;" vertex="1" parent="1">
          <mxGeometry x="170" y="640" width="480" height="10" as="geometry" />
        </mxCell>
        <mxCell id="eqwybZmGa9eHu6jBJoFd-13" value="" style="edgeStyle=orthogonalEdgeStyle;html=1;verticalAlign=bottom;endArrow=open;endSize=8;strokeColor=#ff0000;rounded=0;" edge="1" source="eqwybZmGa9eHu6jBJoFd-12" parent="1" target="eqwybZmGa9eHu6jBJoFd-23">
          <mxGeometry relative="1" as="geometry">
            <mxPoint x="414" y="730" as="targetPoint" />
            <Array as="points">
              <mxPoint x="410" y="700" />
              <mxPoint x="415" y="700" />
            </Array>
          </mxGeometry>
        </mxCell>
        <mxCell id="eqwybZmGa9eHu6jBJoFd-16" value="" style="endArrow=classic;html=1;rounded=0;exitX=0.5;exitY=1;exitDx=0;exitDy=0;entryX=0.5;entryY=0;entryDx=0;entryDy=0;" edge="1" parent="1" source="eqwybZmGa9eHu6jBJoFd-2" target="eqwybZmGa9eHu6jBJoFd-3">
          <mxGeometry width="50" height="50" relative="1" as="geometry">
            <mxPoint x="390" y="420" as="sourcePoint" />
            <mxPoint x="440" y="370" as="targetPoint" />
          </mxGeometry>
        </mxCell>
        <mxCell id="eqwybZmGa9eHu6jBJoFd-17" value="" style="endArrow=classic;html=1;rounded=0;exitX=0.5;exitY=1;exitDx=0;exitDy=0;entryX=0.5;entryY=0;entryDx=0;entryDy=0;" edge="1" parent="1" source="eqwybZmGa9eHu6jBJoFd-3" target="eqwybZmGa9eHu6jBJoFd-4">
          <mxGeometry width="50" height="50" relative="1" as="geometry">
            <mxPoint x="390" y="420" as="sourcePoint" />
            <mxPoint x="440" y="370" as="targetPoint" />
          </mxGeometry>
        </mxCell>
        <mxCell id="eqwybZmGa9eHu6jBJoFd-18" value="" style="endArrow=classic;html=1;rounded=0;exitX=0.5;exitY=1;exitDx=0;exitDy=0;entryX=0.5;entryY=0;entryDx=0;entryDy=0;" edge="1" parent="1" source="eqwybZmGa9eHu6jBJoFd-4" target="eqwybZmGa9eHu6jBJoFd-5">
          <mxGeometry width="50" height="50" relative="1" as="geometry">
            <mxPoint x="390" y="420" as="sourcePoint" />
            <mxPoint x="440" y="370" as="targetPoint" />
          </mxGeometry>
        </mxCell>
        <mxCell id="eqwybZmGa9eHu6jBJoFd-19" value="" style="endArrow=classic;html=1;rounded=0;exitX=0.5;exitY=1;exitDx=0;exitDy=0;entryX=0.125;entryY=0.3;entryDx=0;entryDy=0;entryPerimeter=0;" edge="1" parent="1" source="eqwybZmGa9eHu6jBJoFd-5" target="eqwybZmGa9eHu6jBJoFd-12">
          <mxGeometry width="50" height="50" relative="1" as="geometry">
            <mxPoint x="390" y="420" as="sourcePoint" />
            <mxPoint x="440" y="370" as="targetPoint" />
          </mxGeometry>
        </mxCell>
        <mxCell id="eqwybZmGa9eHu6jBJoFd-20" value="" style="endArrow=classic;html=1;rounded=0;exitX=0.5;exitY=1;exitDx=0;exitDy=0;entryX=0.858;entryY=0.3;entryDx=0;entryDy=0;entryPerimeter=0;" edge="1" parent="1" source="eqwybZmGa9eHu6jBJoFd-6" target="eqwybZmGa9eHu6jBJoFd-12">
          <mxGeometry width="50" height="50" relative="1" as="geometry">
            <mxPoint x="390" y="420" as="sourcePoint" />
            <mxPoint x="440" y="370" as="targetPoint" />
          </mxGeometry>
        </mxCell>
        <mxCell id="eqwybZmGa9eHu6jBJoFd-21" value="Plataforma" style="text;html=1;align=center;verticalAlign=middle;whiteSpace=wrap;rounded=0;" vertex="1" parent="1">
          <mxGeometry x="170" y="110" width="60" height="30" as="geometry" />
        </mxCell>
        <mxCell id="eqwybZmGa9eHu6jBJoFd-22" value="Via Google" style="text;html=1;align=center;verticalAlign=middle;whiteSpace=wrap;rounded=0;" vertex="1" parent="1">
          <mxGeometry x="570" y="110" width="60" height="30" as="geometry" />
        </mxCell>
        <mxCell id="eqwybZmGa9eHu6jBJoFd-23" value="" style="rhombus;whiteSpace=wrap;html=1;" vertex="1" parent="1">
          <mxGeometry x="374" y="730" width="80" height="80" as="geometry" />
        </mxCell>
        <mxCell id="eqwybZmGa9eHu6jBJoFd-25" value="Login Plataforma?" style="text;html=1;align=center;verticalAlign=middle;whiteSpace=wrap;rounded=0;" vertex="1" parent="1">
          <mxGeometry x="420" y="670" width="60" height="30" as="geometry" />
        </mxCell>
        <mxCell id="eqwybZmGa9eHu6jBJoFd-27" value="Confirmar Token Email" style="rounded=1;whiteSpace=wrap;html=1;" vertex="1" parent="1">
          <mxGeometry x="590" y="740" width="110" height="60" as="geometry" />
        </mxCell>
        <mxCell id="eqwybZmGa9eHu6jBJoFd-28" value="" style="endArrow=classic;html=1;rounded=0;entryX=0;entryY=0.5;entryDx=0;entryDy=0;exitX=1;exitY=0.5;exitDx=0;exitDy=0;" edge="1" parent="1" source="eqwybZmGa9eHu6jBJoFd-23" target="eqwybZmGa9eHu6jBJoFd-27">
          <mxGeometry width="50" height="50" relative="1" as="geometry">
            <mxPoint x="390" y="820" as="sourcePoint" />
            <mxPoint x="440" y="770" as="targetPoint" />
          </mxGeometry>
        </mxCell>
        <mxCell id="eqwybZmGa9eHu6jBJoFd-29" value="Sim" style="text;html=1;align=center;verticalAlign=middle;whiteSpace=wrap;rounded=0;" vertex="1" parent="1">
          <mxGeometry x="470" y="770" width="60" height="30" as="geometry" />
        </mxCell>
        <mxCell id="eqwybZmGa9eHu6jBJoFd-30" value="Sucesso Bem Vindo" style="rounded=1;whiteSpace=wrap;html=1;" vertex="1" parent="1">
          <mxGeometry x="354" y="950" width="120" height="60" as="geometry" />
        </mxCell>
        <mxCell id="eqwybZmGa9eHu6jBJoFd-31" value="" style="endArrow=classic;html=1;rounded=0;entryX=0.5;entryY=0;entryDx=0;entryDy=0;exitX=0.5;exitY=1;exitDx=0;exitDy=0;" edge="1" parent="1" source="eqwybZmGa9eHu6jBJoFd-23" target="eqwybZmGa9eHu6jBJoFd-30">
          <mxGeometry width="50" height="50" relative="1" as="geometry">
            <mxPoint x="390" y="820" as="sourcePoint" />
            <mxPoint x="440" y="770" as="targetPoint" />
          </mxGeometry>
        </mxCell>
        <mxCell id="eqwybZmGa9eHu6jBJoFd-32" value="Não" style="text;html=1;align=center;verticalAlign=middle;whiteSpace=wrap;rounded=0;" vertex="1" parent="1">
          <mxGeometry x="360" y="830" width="50" height="30" as="geometry" />
        </mxCell>
        <mxCell id="eqwybZmGa9eHu6jBJoFd-33" value="" style="rhombus;whiteSpace=wrap;html=1;" vertex="1" parent="1">
          <mxGeometry x="605" y="850" width="80" height="80" as="geometry" />
        </mxCell>
        <mxCell id="eqwybZmGa9eHu6jBJoFd-34" value="" style="endArrow=classic;html=1;rounded=0;entryX=0.5;entryY=0;entryDx=0;entryDy=0;exitX=0.5;exitY=1;exitDx=0;exitDy=0;" edge="1" parent="1" source="eqwybZmGa9eHu6jBJoFd-27" target="eqwybZmGa9eHu6jBJoFd-33">
          <mxGeometry width="50" height="50" relative="1" as="geometry">
            <mxPoint x="390" y="820" as="sourcePoint" />
            <mxPoint x="440" y="770" as="targetPoint" />
          </mxGeometry>
        </mxCell>
        <mxCell id="eqwybZmGa9eHu6jBJoFd-35" value="Token valido?" style="text;html=1;align=center;verticalAlign=middle;whiteSpace=wrap;rounded=0;" vertex="1" parent="1">
          <mxGeometry x="642" y="810" width="60" height="30" as="geometry" />
        </mxCell>
        <mxCell id="eqwybZmGa9eHu6jBJoFd-36" value="Erro Token Incorreto Inserido" style="rounded=1;whiteSpace=wrap;html=1;" vertex="1" parent="1">
          <mxGeometry x="778" y="860" width="120" height="60" as="geometry" />
        </mxCell>
        <mxCell id="eqwybZmGa9eHu6jBJoFd-37" value="" style="endArrow=classic;html=1;rounded=0;entryX=0;entryY=0.5;entryDx=0;entryDy=0;exitX=1;exitY=0.5;exitDx=0;exitDy=0;" edge="1" parent="1" source="eqwybZmGa9eHu6jBJoFd-33" target="eqwybZmGa9eHu6jBJoFd-36">
          <mxGeometry width="50" height="50" relative="1" as="geometry">
            <mxPoint x="390" y="820" as="sourcePoint" />
            <mxPoint x="440" y="770" as="targetPoint" />
          </mxGeometry>
        </mxCell>
        <mxCell id="eqwybZmGa9eHu6jBJoFd-38" value="Não" style="text;html=1;align=center;verticalAlign=middle;whiteSpace=wrap;rounded=0;" vertex="1" parent="1">
          <mxGeometry x="702" y="860" width="60" height="30" as="geometry" />
        </mxCell>
        <mxCell id="eqwybZmGa9eHu6jBJoFd-39" value="" style="endArrow=classic;html=1;rounded=0;exitX=0.5;exitY=1;exitDx=0;exitDy=0;entryX=1;entryY=0.5;entryDx=0;entryDy=0;" edge="1" parent="1" source="eqwybZmGa9eHu6jBJoFd-33" target="eqwybZmGa9eHu6jBJoFd-30">
          <mxGeometry width="50" height="50" relative="1" as="geometry">
            <mxPoint x="390" y="820" as="sourcePoint" />
            <mxPoint x="440" y="770" as="targetPoint" />
          </mxGeometry>
        </mxCell>
        <mxCell id="eqwybZmGa9eHu6jBJoFd-40" value="Sim" style="text;html=1;align=center;verticalAlign=middle;whiteSpace=wrap;rounded=0;" vertex="1" parent="1">
          <mxGeometry x="560" y="950" width="60" height="30" as="geometry" />
        </mxCell>
        <mxCell id="eqwybZmGa9eHu6jBJoFd-41" value="" style="ellipse;html=1;shape=endState;fillColor=#000000;strokeColor=#ff0000;" vertex="1" parent="1">
          <mxGeometry x="394" y="1080" width="40" height="40" as="geometry" />
        </mxCell>
        <mxCell id="eqwybZmGa9eHu6jBJoFd-42" value="" style="endArrow=classic;html=1;rounded=0;exitX=0.5;exitY=1;exitDx=0;exitDy=0;entryX=0.5;entryY=0;entryDx=0;entryDy=0;" edge="1" parent="1" source="eqwybZmGa9eHu6jBJoFd-30" target="eqwybZmGa9eHu6jBJoFd-41">
          <mxGeometry width="50" height="50" relative="1" as="geometry">
            <mxPoint x="390" y="1120" as="sourcePoint" />
            <mxPoint x="440" y="1070" as="targetPoint" />
          </mxGeometry>
        </mxCell>
      </root>
    </mxGraphModel>
  </diagram>
  <diagram id="hAKQ2IcH8jbp8x199lC5" name="Página-3">
    <mxGraphModel grid="1" page="1" gridSize="10" guides="1" tooltips="1" connect="1" arrows="1" fold="1" pageScale="1" pageWidth="827" pageHeight="1169" math="0" shadow="0">
      <root>
        <mxCell id="0" />
        <mxCell id="1" parent="0" />
      </root>
    </mxGraphModel>
  </diagram>
</mxfile>
